<svg width="57" height="23" viewBox="0 0 57 23" fill="none" xmlns="http://www.w3.org/2000/svg">
<path d="M1 14.3599L3.92035 16.9138V21L5.86726 19.9785V15.3815L7.32743 10.2737V6.18754L10.7345 10.2737L13.6549 7.71986L15.115 12.8276V19.9785L17.5487 12.8276L18.5221 6.18754L20.469 2.61212V7.71986L21.9292 6.18754L23.3894 2.61212C23.3894 1.93108 23.5841 0.671174 24.3628 1.07979C25.1416 1.48841 26.6342 2.2716 27.2832 2.61212V7.71986L29.2301 11.2953L30.6903 14.3599L33.1239 6.18754L36.0442 2.61212C37.6667 4.48497 37.9912 8.43497 37.9912 9.2522C37.9912 10.0694 37.9912 13.6789 37.9912 15.3815L39.4513 16.9138L41.3982 19.9785L42.3717 21L43.8319 14.3599L45.292 12.8276L46.7522 11.2953L49.1858 15.3815C49.3481 15.8923 49.8673 16.9138 50.646 16.9138C51.6195 16.9138 53.0796 12.3169 53.5664 11.2953C53.9558 10.478 53.7286 14.7004 53.5664 16.9138H55.0265L56 19.9785" stroke="#FF35A2" stroke-linecap="round" stroke-linejoin="round"/>
<path d="M3.92035 16.9138L1 14.3599V22.5H56V19.9785L55.0265 16.9138H53.5664C53.7286 14.7004 53.9558 10.478 53.5664 11.2953C53.0796 12.3169 51.6195 16.9138 50.646 16.9138C49.8673 16.9138 49.3481 15.8923 49.1858 15.3815L46.7522 11.2953L45.292 12.8276L43.8319 14.3599L42.3717 21L41.3982 19.9785L39.4513 16.9138L37.9911 15.3815V9.2522C37.9911 8.43497 37.6667 4.48497 36.0442 2.61212L33.1239 6.18754L30.6903 14.3599L29.2301 11.2953L27.2832 7.71986V2.61212L24.3628 1.07979C23.5841 0.671174 23.3894 1.93108 23.3894 2.61212L21.9292 6.18754L20.469 7.71986V2.61212L18.5221 6.18754L17.5487 12.8276L15.115 19.9785V12.8276L13.6549 7.71986L10.7345 10.2737L7.32743 6.18754V10.2737L5.86726 15.3815V19.9785L3.92035 21V16.9138Z" fill="url(#paint0_linear_1_1575)"/>
<defs>
<linearGradient id="paint0_linear_1_1575" x1="28" y1="-13" x2="29" y2="20.5" gradientUnits="userSpaceOnUse">
<stop stop-color="#FF35A2"/>
<stop offset="1" stop-color="#FF35A2" stop-opacity="0"/>
</linearGradient>
</defs>
</svg>
