<svg width="86" height="86" viewBox="0 0 86 86" fill="none" xmlns="http://www.w3.org/2000/svg">
<path d="M43 86C66.7482 86 86 66.7482 86 43C86 19.2518 66.7482 0 43 0C21.0295 0 2.90744 16.4774 0.317444 37.7486C2.14503 37.2389 4.07931 36.984 6.12028 36.984C8.52028 36.984 10.8123 37.332 12.9963 38.028C14.083 38.3705 15.0767 38.7654 15.9774 39.2126L15.4154 38.136H25.6394L38.1314 62.976L49.1834 38.136H59.4074L36.2877 85.4792C38.4748 85.822 40.7166 86 43 86Z" fill="#277EFF"/>
<path d="M13.9911 74.7412C17.8556 78.275 22.3675 81.1124 27.3283 83.0548L32.9474 71.724L17.6215 42.3624L15.2643 46.812C13.1763 45.204 10.5723 44.4 7.45227 44.4C4.90828 44.4 2.71228 44.964 0.864277 46.092C0.617399 46.2447 0.377996 46.4039 0.146068 46.5698C0.824978 54.8308 3.83901 62.4301 8.52674 68.7064C11.1591 68.548 13.3929 67.7539 15.2283 66.324L18.4683 72.372C17.2263 73.3086 15.7339 74.0983 13.9911 74.7412Z" fill="#277EFF"/>
</svg>
