<svg width="56" height="29" viewBox="0 0 56 29" fill="none" xmlns="http://www.w3.org/2000/svg">
<path d="M2.49375 24.6501L2.22994 25.2417C1.67412 26.4882 1.39621 27.1115 1.68445 27.5647C1.9727 28.018 2.65498 28.0306 4.01954 28.0559L52.963 28.9623C53.9217 28.98 54.4011 28.9889 54.7005 28.6949C55 28.401 55 27.9215 55 26.9626V19.5L54.4362 21.3061C53.7973 23.353 53.4779 24.3765 52.8577 24.469C52.7829 24.4802 52.707 24.4828 52.6315 24.4769C52.0064 24.4276 51.6167 23.4288 50.8373 21.4312L50.2064 19.8143C49.973 19.2159 49.1879 19.0786 48.7652 19.5623C48.279 20.1186 47.3636 19.8384 47.2721 19.1052L47.2128 18.6306L47.2128 18.6304C47.1951 18.4885 47.1862 18.4176 47.1777 18.377C47.0088 17.5732 45.9964 17.3046 45.4512 17.9189C45.4236 17.9499 45.3807 18.0072 45.295 18.1217L45.185 18.2685C45.1633 18.2974 45.1525 18.3119 45.1423 18.3265C45.0613 18.443 45.0061 18.5755 44.9802 18.715C44.977 18.7325 44.9744 18.7503 44.9691 18.7858L44.969 18.7861L43.6892 27.3965C43.6158 27.8907 42.9498 27.9967 42.7265 27.5497L42.6573 27.4111C42.4842 27.0644 41.981 27.0908 41.8451 27.4537C41.686 27.8784 41.0674 27.8189 40.9922 27.3716L39.5017 18.5034C39.4066 17.9375 38.6049 17.9061 38.4659 18.4629C38.326 19.023 37.5182 18.9867 37.4291 18.4163L37.2377 17.19C37.1213 16.4436 36.0464 16.4436 35.9299 17.19L35.7744 18.1862C35.6897 18.7291 34.9122 18.7409 34.811 18.2009C34.7144 17.685 33.9835 17.6632 33.8564 18.1724L32.9353 21.8609C32.8289 22.2871 32.2231 22.2871 32.1167 21.8609C32.0306 21.5161 31.5828 21.4257 31.3697 21.7101L31.0659 22.1157C30.7015 22.6021 29.9292 22.3825 29.8753 21.7772L28.5527 6.94758C28.5166 6.54211 28.0434 6.34024 27.7257 6.59472C27.4679 6.8012 27.0848 6.71199 26.9447 6.41286L26.5983 5.67301C26.4378 5.33013 25.9987 5.22788 25.7032 5.46456L25.579 5.56402C25.3173 5.77361 24.9268 5.6543 24.8269 5.33426C24.7648 5.13541 24.5807 5 24.3724 5H24.193C23.951 5 23.737 4.84266 23.6649 4.61162C23.5056 4.10139 22.7872 4.09127 22.6136 4.59681L21.3843 8.17707L21.3843 8.17709C20.7806 9.9353 20.4788 10.8144 19.9647 10.9522C19.8 10.9963 19.6267 10.9976 19.4614 10.956C18.9453 10.8259 18.6303 9.95138 18.0004 8.20239L18.0004 8.20238L16.853 5.01657C16.0942 2.90975 15.7148 1.85634 15.0219 1.84722C14.3291 1.83811 13.9221 2.88118 13.1081 4.96731L12.1912 7.31747C12.0591 7.65594 11.6366 7.76912 11.353 7.542C11.0414 7.29242 10.5761 7.45691 10.4905 7.84688L7.70031 20.5679L7.7003 20.5679C7.66007 20.7514 7.63995 20.8431 7.63005 20.8767C7.34542 21.8445 5.96952 21.8299 5.70553 20.8563C5.69635 20.8224 5.67819 20.7303 5.64186 20.546C5.60821 20.3753 5.59139 20.29 5.58236 20.2565C5.32387 19.2997 3.98054 19.2614 3.66799 20.202C3.65708 20.2348 3.63542 20.3191 3.59212 20.4875L3.59211 20.4876L2.60162 24.3408C2.58165 24.4185 2.57166 24.4573 2.55862 24.4952L2.55608 24.5025C2.54275 24.5402 2.52642 24.5769 2.49377 24.6501L2.49375 24.6501Z" fill="url(#paint0_linear_1_1560)"/>
<path d="M1 28L2.49375 24.6501C2.52642 24.5769 2.54275 24.5402 2.55608 24.5025C2.55694 24.5001 2.55778 24.4976 2.55862 24.4952C2.57166 24.4573 2.58165 24.4185 2.60162 24.3408L3.59211 20.4876C3.63542 20.3191 3.65707 20.2349 3.66799 20.202C3.98054 19.2614 5.32387 19.2997 5.58236 20.2565C5.59139 20.29 5.60821 20.3753 5.64186 20.546V20.546C5.67819 20.7303 5.69635 20.8224 5.70553 20.8563C5.96952 21.8299 7.34542 21.8445 7.63005 20.8767C7.63995 20.8431 7.66007 20.7513 7.70031 20.5679L10.4905 7.84688C10.5761 7.45691 11.0414 7.29242 11.353 7.542V7.542C11.6366 7.76912 12.0591 7.65594 12.1912 7.31747L13.1081 4.96731C13.9221 2.88118 14.3291 1.83811 15.0219 1.84722C15.7148 1.85634 16.0942 2.90975 16.853 5.01657L18.0004 8.20237C18.6303 9.95137 18.9453 10.8259 19.4614 10.956C19.6267 10.9976 19.8 10.9963 19.9647 10.9522C20.4788 10.8144 20.7806 9.93529 21.3843 8.17707L22.6136 4.59681C22.7872 4.09127 23.5056 4.10139 23.6649 4.61162V4.61162C23.737 4.84266 23.951 5 24.193 5H24.3724C24.5807 5 24.7648 5.13541 24.8269 5.33426V5.33426C24.9268 5.6543 25.3173 5.77361 25.579 5.56402L25.7032 5.46456C25.9987 5.22788 26.4378 5.33013 26.5983 5.67301L26.9447 6.41286C27.0848 6.71199 27.4679 6.8012 27.7257 6.59472V6.59472C28.0434 6.34024 28.5166 6.54211 28.5527 6.94758L29.8753 21.7772C29.9292 22.3825 30.7015 22.6021 31.0659 22.1157L31.3697 21.7101C31.5828 21.4257 32.0306 21.5161 32.1167 21.8609V21.8609C32.2231 22.2871 32.8289 22.2871 32.9353 21.8609L33.8564 18.1724C33.9835 17.6632 34.7144 17.685 34.811 18.2009V18.2009C34.9122 18.7409 35.6897 18.7291 35.7744 18.1862L35.9299 17.19C36.0464 16.4436 37.1213 16.4436 37.2377 17.19L37.4291 18.4163C37.5182 18.9867 38.326 19.023 38.4659 18.4629V18.4629C38.6049 17.9061 39.4066 17.9375 39.5017 18.5034L40.9922 27.3716C41.0674 27.8189 41.686 27.8784 41.8451 27.4537V27.4537C41.981 27.0908 42.4842 27.0644 42.6573 27.4111L42.7265 27.5497C42.9498 27.9967 43.6158 27.8907 43.6892 27.3965L44.969 18.7861C44.9743 18.7504 44.977 18.7325 44.9802 18.715C45.0061 18.5755 45.0613 18.443 45.1423 18.3265C45.1525 18.3119 45.1633 18.2974 45.185 18.2685L45.295 18.1217C45.3807 18.0072 45.4236 17.9499 45.4512 17.9189C45.9964 17.3046 47.0088 17.5732 47.1777 18.377C47.1862 18.4176 47.1951 18.4886 47.2128 18.6306L47.2721 19.1052C47.3636 19.8384 48.279 20.1186 48.7652 19.5623V19.5623C49.1879 19.0786 49.973 19.2159 50.2064 19.8143L50.8373 21.4312C51.6167 23.4288 52.0064 24.4276 52.6315 24.4769C52.707 24.4828 52.7829 24.4802 52.8577 24.469C53.4779 24.3765 53.7973 23.353 54.4362 21.3061L55 19.5" stroke="#12D790"/>
<defs>
<linearGradient id="paint0_linear_1_1560" x1="28" y1="-16" x2="28" y2="29" gradientUnits="userSpaceOnUse">
<stop stop-color="#12D790"/>
<stop offset="1" stop-color="#12D790" stop-opacity="0"/>
</linearGradient>
</defs>
</svg>
