<svg width="24" height="32" viewBox="0 0 24 32" fill="none" xmlns="http://www.w3.org/2000/svg">
<path fill-rule="evenodd" clip-rule="evenodd" d="M23.6345 28.6619C21.8616 31.4134 17.6232 32.1013 11.7057 31.9885C5.78813 31.8735 2.58651 30.1527 1.36684 29.417C0.147177 28.6836 -0.290596 27.2384 0.192915 26.62C0.676425 25.9994 0.399822 21.8243 0.42378 20.6547C0.44556 19.4829 1.27537 17.8099 1.29715 16.0197C1.32111 14.2295 1.57375 14.0016 3.20941 12.1875C4.56629 10.6837 7.00344 9.60526 7.79187 9.28193C7.95304 9.21683 8.04451 9.18211 8.04451 9.18211C7.86157 8.46603 7.34386 7.81438 7.10145 7.20961C5.25671 2.60581 3.20941 1.33769 3.20941 1.33769L5.81209 1.31382C5.7424 0.866803 6.55914 0.717076 7.18204 0.717076H11.5641H11.7754C12.3286 -0.0749619 15.1251 -0.109681 16.2664 0.131185C17.2878 0.346012 17.2269 1.08814 17.2029 1.24004V1.24221C17.2007 1.25957 17.1985 1.26825 17.1985 1.26825C18.1656 1.02738 20.0408 1.22268 20.0408 1.22268C18.5053 2.09717 16.9111 5.19155 16.1967 7.43963C16.005 8.04939 15.772 8.48122 15.589 8.76331C15.4017 9.05192 15.2645 9.18211 15.2645 9.18211C15.2645 9.18211 15.3516 9.21683 15.5041 9.28193C16.225 9.59007 18.3964 10.5514 19.6509 11.4888C21.169 12.6237 22.4126 14.7915 22.3451 15.653C22.2754 16.5123 22.6544 18.5086 23.0007 19.5415C23.347 20.5744 23.3796 25.4959 23.4145 26.2511C23.4493 27.0084 24.5557 27.4445 23.6345 28.6619Z" fill="#EAB876"/>
<path fill-rule="evenodd" clip-rule="evenodd" d="M10.6099 7.38969C10.325 7.54875 10.2316 5.43585 9.40133 3.50067C8.9176 2.37273 8.16359 1.45309 7.36035 0.717041H11.5638C12.1083 3.538 11.1217 7.10325 10.6099 7.38969Z" fill="#CB935F"/>
<path fill-rule="evenodd" clip-rule="evenodd" d="M20.041 1.22267C18.5055 2.09717 16.9112 5.19154 16.1968 7.43963C16.0052 8.04939 15.7721 8.48121 15.5892 8.76331C15.4041 8.50074 15.0578 7.66964 15.4803 5.32391C15.82 3.44472 16.6281 2.04292 17.2031 1.2422C17.2009 1.25956 17.1987 1.26824 17.1987 1.26824C18.1657 1.02738 20.041 1.22267 20.041 1.22267Z" fill="#CB935F"/>
<path fill-rule="evenodd" clip-rule="evenodd" d="M23.6345 28.662C21.8616 31.4135 17.6232 32.1013 11.7057 31.9885C5.78813 31.8735 2.58651 30.1527 1.36684 29.4171C0.147177 28.6837 -0.290596 27.2385 0.192915 26.62C0.676425 25.9994 0.399822 21.8244 0.42378 20.6548C0.44556 19.483 1.27537 17.8099 1.29715 16.0197C1.32111 14.2295 1.57375 14.0017 3.20941 12.1876C4.56629 10.6838 7.00344 9.60531 7.79187 9.28198H15.5041C16.225 9.59012 18.3964 10.5514 19.6509 11.4888C21.169 12.6237 22.4126 14.7915 22.3451 15.653C22.2754 16.5123 22.6544 18.5087 23.0007 19.5416C23.347 20.5745 23.3796 25.496 23.4145 26.2511C23.4493 27.0084 24.5557 27.4446 23.6345 28.662Z" fill="#CB935F"/>
<path fill-rule="evenodd" clip-rule="evenodd" d="M8.50397 12.9815C8.41794 13.1607 8.05487 13.8935 8.05661 13.4524L8.18141 10.3847C8.19317 9.75236 7.51386 10.2686 7.22593 10.7503C6.23822 12.4036 4.91336 13.9977 4.4109 16.8015C4.32465 17.2832 3.91999 17.4805 3.90931 17.267C3.85334 16.1308 3.99338 14.313 5.08455 12.4824C6.70322 9.76668 4.45403 12.276 4.00515 12.8956C3.55605 13.5149 2.32113 15.2011 1.73395 18.4016C1.14677 21.6021 0.693316 25.5575 1.71108 27.0852C5.07301 32.1325 21.5256 30.4942 21.9747 27.8653C22.3433 25.7088 22.3548 22.8409 21.0768 20.1912C20.3221 18.6264 21.0691 19.5011 21.7818 20.4891C21.9734 20.755 22.394 20.5848 22.3463 20.2613C22.0246 18.0885 21.621 14.8926 19.5108 13.0904C18.8659 12.5397 20.5691 14.6639 20.4208 16.4237C20.4046 16.6157 20.1328 16.6474 20.0668 16.4665C19.611 15.2152 18.3946 12.2558 16.4584 10.2469C16.3159 10.0991 16.074 10.2632 16.1582 10.45C16.491 11.1889 16.9558 12.2845 17.2481 13.2451C17.3117 13.4535 17.024 13.5797 16.9147 13.3914C16.148 12.0712 14.7772 10.0509 13.5469 10.0047C11.9092 9.9431 13.5331 11.2859 13.4735 13.0231C13.4669 13.2161 13.2051 13.271 13.1226 13.0965C12.8974 12.6206 12.5271 11.8854 12.0386 11.0741C11.4549 10.1045 9.80531 10.172 9.3157 11.1919L8.50397 12.9815Z" fill="#EAB876"/>
<path fill-rule="evenodd" clip-rule="evenodd" d="M14.9751 22.6619C14.9751 24.0884 13.9077 25.1094 12.0946 25.2212V26.9135H11.1441V25.2073C10.0621 25.0814 9.0385 24.6478 8.17578 23.8367L8.95076 22.9696C9.76961 23.7388 10.8224 24.1304 11.7582 24.1304C12.8403 24.1304 13.6299 23.6129 13.6299 22.7458C13.6299 21.7389 12.7964 21.4032 11.4512 20.9837C9.85735 20.5082 8.38049 20.0187 8.38049 18.3544C8.38049 17.0118 9.37481 15.9769 11.1441 15.879V14.1309H12.0946V15.935C13.0011 16.0748 13.9808 16.4664 14.6388 16.9699L13.9077 17.823C13.1474 17.2915 12.1677 16.9979 11.4512 16.9979C10.4276 16.9979 9.71112 17.4734 9.71112 18.2845C9.71112 19.1656 10.6031 19.4733 11.8167 19.8509C13.6153 20.4103 14.9751 20.8718 14.9751 22.6619Z" fill="white"/>
<path d="M8.04492 9.18272H15.2638" stroke="#B07845" stroke-width="0.576" stroke-linecap="round"/>
</svg>
