<svg width="57" height="33" viewBox="0 0 57 33" fill="none" xmlns="http://www.w3.org/2000/svg">
<path d="M54.9458 18.8521L56 13.5V30.5181C56 31.4531 56 31.9206 55.7103 32.2129C55.4206 32.5053 54.9531 32.5095 54.0182 32.518L3.01818 32.9817C2.06755 32.9903 1.59223 32.9946 1.29612 32.7012C1 32.4077 1 31.9324 1 30.9817V21.5L1.56377 23.3061C2.20268 25.353 2.52213 26.3765 3.14228 26.469C3.21715 26.4802 3.29304 26.4828 3.3685 26.4769C3.99357 26.4276 4.38328 25.4288 5.16269 23.4312L5.79356 21.8143C6.02703 21.2159 6.81207 21.0786 7.23476 21.5623C7.721 22.1186 8.63636 21.8384 8.7279 21.1052L8.9471 19.3496C9.00828 18.8596 9.63497 18.6933 9.93106 19.0885C10.254 19.5197 10.9401 19.2761 10.9188 18.7378L10.7625 14.7809C10.7616 14.7567 10.7611 14.7447 10.7609 14.7328C10.7585 14.5804 10.791 14.4296 10.8558 14.2917C10.8608 14.2809 10.8662 14.2701 10.877 14.2485L11.5055 12.9902C11.6936 12.6134 12.2405 12.6421 12.3882 13.0365C12.5546 13.4808 13.1952 13.4428 13.308 12.982L15.1998 5.25363C15.3422 4.67201 16.1685 4.67009 16.3136 5.25105C16.4651 5.85794 17.3405 5.81858 17.4369 5.20053L17.4893 4.86486C17.6053 4.12178 18.6844 4.14884 18.763 4.8968L20.3462 19.9678C20.3998 20.478 21.1316 20.5074 21.226 20.0033C21.3139 19.5337 21.9792 19.5139 22.0949 19.9774L23.0647 23.8609C23.1711 24.2871 23.7769 24.2871 23.8833 23.8609C23.9694 23.5161 24.4172 23.4257 24.6303 23.7101L24.9695 24.1629C25.3387 24.6559 26.1196 24.4558 26.2064 23.846L27.1208 17.4181C27.1785 17.0125 27.6555 16.8236 27.9753 17.0797C28.2426 17.2938 28.6398 17.2013 28.7851 16.8911L29.3563 15.6712C29.3859 15.6078 29.4008 15.5761 29.4133 15.5436C29.425 15.5133 29.4352 15.4825 29.4439 15.4512C29.4532 15.4176 29.4602 15.3833 29.4742 15.3148L30.9653 8L31.1379 7.44694C31.2209 7.18106 31.4671 7 31.7457 7H31.807C32.049 7 32.263 6.84266 32.3351 6.61162C32.4944 6.10139 33.2128 6.09127 33.3864 6.59681L34.6157 10.1771L34.6157 10.1771C35.2194 11.9353 35.5212 12.8144 36.0353 12.9522C36.2 12.9963 36.3733 12.9976 36.5386 12.956C37.0547 12.8259 37.3697 11.9514 37.9996 10.2024L37.9996 10.2024L39.8037 5.19324C39.9556 4.77156 40.0315 4.56072 40.0979 4.46046C40.4969 3.8582 41.3832 3.86473 41.7733 4.4728C41.8382 4.57403 41.911 4.78596 42.0567 5.20983L42.1647 5.52422C42.3422 6.04088 42.9342 6.28289 43.4228 6.03858C43.9614 5.76929 44.6077 6.09244 44.7154 6.68487L46.2842 15.3133C46.3893 15.8914 46.4419 16.1804 46.6258 16.3891C46.8098 16.5977 47.0899 16.6861 47.6502 16.8629L50.3183 17.7047L50.3183 17.7047C50.7147 17.8297 50.9129 17.8923 51.0643 18.0185C51.1246 18.0687 51.1787 18.1259 51.2256 18.1888C51.3435 18.3468 51.3952 18.548 51.4987 18.9506C52.1552 21.5045 52.4834 22.7815 53.0299 22.941C53.2317 22.9999 53.4468 22.9938 53.6448 22.9235C54.1813 22.733 54.4361 21.4393 54.9458 18.8521Z" fill="url(#paint0_linear_1_1605)"/>
<path d="M56 13.5L54.9458 18.8521C54.4361 21.4393 54.1813 22.7329 53.6448 22.9235C53.4468 22.9938 53.2317 22.9999 53.0299 22.941C52.4834 22.7815 52.1552 21.5045 51.4987 18.9506V18.9506C51.3952 18.548 51.3435 18.3468 51.2256 18.1888C51.1787 18.1259 51.1246 18.0687 51.0643 18.0185C50.9129 17.8923 50.7147 17.8297 50.3183 17.7047L47.6502 16.8629C47.0899 16.6861 46.8098 16.5977 46.6258 16.3891C46.4419 16.1804 46.3893 15.8914 46.2842 15.3133L44.7154 6.68487C44.6077 6.09244 43.9614 5.76929 43.4228 6.03858V6.03858C42.9342 6.28289 42.3422 6.04088 42.1647 5.52422L42.0567 5.20983C41.911 4.78596 41.8382 4.57403 41.7733 4.4728C41.3832 3.86473 40.4969 3.8582 40.0979 4.46046C40.0315 4.56072 39.9556 4.77156 39.8037 5.19324L37.9996 10.2024C37.3697 11.9514 37.0547 12.8259 36.5386 12.956C36.3733 12.9976 36.2 12.9963 36.0353 12.9522C35.5212 12.8144 35.2194 11.9353 34.6157 10.1771L33.3864 6.59681C33.2128 6.09127 32.4944 6.10139 32.3351 6.61162V6.61162C32.263 6.84266 32.049 7 31.807 7H31.7457C31.4671 7 31.2209 7.18106 31.1379 7.44694L30.9653 8L29.4742 15.3148C29.4602 15.3833 29.4532 15.4176 29.4439 15.4512C29.4352 15.4825 29.425 15.5133 29.4133 15.5436C29.4008 15.5761 29.3859 15.6078 29.3563 15.6712L28.7851 16.8911C28.6398 17.2013 28.2426 17.2938 27.9753 17.0797V17.0797C27.6555 16.8236 27.1785 17.0125 27.1208 17.4181L26.2064 23.846C26.1197 24.4558 25.3387 24.6559 24.9695 24.1629L24.6302 23.7101C24.4172 23.4257 23.9694 23.5161 23.8833 23.8609V23.8609C23.7769 24.2871 23.1711 24.2871 23.0647 23.8609L22.0949 19.9774C21.9792 19.5139 21.3139 19.5337 21.226 20.0033V20.0033C21.1316 20.5074 20.3998 20.478 20.3462 19.9678L18.763 4.8968C18.6844 4.14884 17.6053 4.12178 17.4893 4.86486L17.4369 5.20053C17.3405 5.81858 16.4651 5.85794 16.3136 5.25105V5.25105C16.1685 4.67009 15.3422 4.67201 15.1998 5.25363L13.308 12.982C13.1952 13.4428 12.5546 13.4808 12.3882 13.0365V13.0365C12.2405 12.6421 11.6936 12.6134 11.5055 12.9902L10.877 14.2485C10.8662 14.2701 10.8608 14.2809 10.8558 14.2917C10.791 14.4296 10.7585 14.5804 10.7609 14.7328C10.7611 14.7447 10.7616 14.7567 10.7625 14.7809L10.9188 18.7378C10.9401 19.2761 10.254 19.5197 9.93106 19.0885V19.0885C9.63497 18.6933 9.00828 18.8596 8.9471 19.3496L8.7279 21.1052C8.63636 21.8384 7.721 22.1186 7.23476 21.5623V21.5623C6.81207 21.0786 6.02703 21.2159 5.79356 21.8143L5.16269 23.4312C4.38328 25.4288 3.99357 26.4276 3.3685 26.4769C3.29304 26.4828 3.21715 26.4802 3.14228 26.469C2.52213 26.3765 2.20268 25.353 1.56377 23.3061L1 21.5" stroke="#12D790"/>
<defs>
<linearGradient id="paint0_linear_1_1605" x1="28.5" y1="-18.2069" x2="28.5" y2="33" gradientUnits="userSpaceOnUse">
<stop stop-color="#12D790"/>
<stop offset="1" stop-color="#12D790" stop-opacity="0"/>
</linearGradient>
</defs>
</svg>
