<svg width="32" height="36" viewBox="0 0 32 36" fill="none" xmlns="http://www.w3.org/2000/svg">
<path d="M16.6497 14.8301L16.0016 15.4645L13.4869 17.9203L10.9723 20.374L13.4869 22.8305L16.0016 25.2857L18.5169 27.7401L19.8598 29.0584H24.887L23.5441 27.7435L21.0281 25.2891L18.5169 22.8305L16.0023 20.374L18.5169 17.9203L19.4831 16.9747L16.6497 14.8301ZM26.615 9.99306L25.4524 11.1285H25.4672L24.8884 11.6938L23.5455 13.0086L23.2628 13.2847L23.1215 13.4186L19.4817 16.9733L16.6546 14.8281L20.4287 11.1285L24.2021 7.4275L24.2078 7.43164L26.0298 5.65224L32.0048 9.02053V36H14.2227V32.5275H28.4434V11.0263L26.6143 9.99099L26.615 9.99306ZM-0.000183105 11.1285V36H10.667V10.8476L7.11124 12.6104V32.5275H3.55553V11.0249L15.9995 4.00813L20.2294 6.39423L22.8282 3.84938L15.9995 0L7.99893 4.50923L-0.000183105 9.01846V11.1285Z" fill="#005FFE"/>
</svg>
