<svg width="57" height="24" viewBox="0 0 57 24" fill="none" xmlns="http://www.w3.org/2000/svg">
<path d="M56 10.5L54.9458 15.8521C54.4361 18.4393 54.1813 19.7329 53.6448 19.9235C53.4468 19.9938 53.2317 19.9999 53.0299 19.941C52.4834 19.7815 52.1552 18.5045 51.4987 15.9506V15.9506C51.3952 15.548 51.3435 15.3468 51.2256 15.1888C51.1787 15.1259 51.1246 15.0687 51.0643 15.0185C50.9129 14.8923 50.7147 14.8297 50.3183 14.7047L47.6502 13.8629C47.0899 13.6861 46.8098 13.5977 46.6258 13.3891C46.4419 13.1804 46.3893 12.8914 46.2842 12.3133L44.7154 3.68487C44.6077 3.09244 43.9614 2.76929 43.4228 3.03858V3.03858C42.9342 3.28289 42.3422 3.04088 42.1647 2.52422L42.0567 2.20983C41.911 1.78596 41.8382 1.57403 41.7733 1.4728C41.3832 0.86473 40.4969 0.858203 40.0979 1.46046C40.0315 1.56072 39.9556 1.77156 39.8037 2.19324L37.9996 7.20238C37.3697 8.95137 37.0547 9.82587 36.5386 9.95596C36.3733 9.99764 36.2 9.99634 36.0353 9.95219C35.5212 9.8144 35.2194 8.93529 34.6157 7.17707L33.3864 3.59681C33.2128 3.09127 32.4944 3.10139 32.3351 3.61162V3.61162C32.263 3.84266 32.049 4 31.807 4H31.7457C31.4671 4 31.2209 4.18106 31.1379 4.44694L30.9653 5L29.4742 12.3148C29.4602 12.3833 29.4532 12.4176 29.4439 12.4512C29.4352 12.4825 29.425 12.5133 29.4133 12.5436C29.4008 12.5761 29.3859 12.6078 29.3563 12.6712L28.7851 13.8911C28.6398 14.2013 28.2426 14.2938 27.9753 14.0797V14.0797C27.6555 13.8236 27.1785 14.0125 27.1208 14.4181L26.2064 20.846C26.1197 21.4558 25.3387 21.6559 24.9695 21.1629L24.6302 20.7101C24.4172 20.4257 23.9694 20.5161 23.8833 20.8609V20.8609C23.7769 21.2871 23.1711 21.2871 23.0647 20.8609L22.0949 16.9774C21.9792 16.5139 21.3139 16.5337 21.226 17.0033V17.0033C21.1316 17.5074 20.3998 17.478 20.3462 16.9678L18.763 1.8968C18.6844 1.14884 17.6053 1.12178 17.4893 1.86486L17.4369 2.20053C17.3405 2.81858 16.4651 2.85794 16.3136 2.25105V2.25105C16.1685 1.67009 15.3422 1.67201 15.1998 2.25363L13.308 9.98203C13.1952 10.4428 12.5546 10.4808 12.3882 10.0365V10.0365C12.2405 9.64212 11.6936 9.61344 11.5055 9.99021L10.877 11.2485C10.8662 11.2701 10.8608 11.2809 10.8558 11.2917C10.791 11.4296 10.7585 11.5804 10.7609 11.7328C10.7611 11.7447 10.7616 11.7567 10.7625 11.7809L10.9188 15.7378C10.9401 16.2761 10.254 16.5197 9.93106 16.0885V16.0885C9.63497 15.6933 9.00828 15.8596 8.9471 16.3496L8.7279 18.1052C8.63636 18.8384 7.721 19.1186 7.23476 18.5623V18.5623C6.81207 18.0786 6.02703 18.2159 5.79356 18.8143L5.16269 20.4312C4.38328 22.4288 3.99357 23.4276 3.3685 23.4769C3.29304 23.4828 3.21715 23.4802 3.14228 23.469C2.52213 23.3765 2.20268 22.353 1.56377 20.3061L1 18.5" stroke="#12D790"/>
</svg>
