<svg width="56" height="24" viewBox="0 0 56 24" fill="none" xmlns="http://www.w3.org/2000/svg">
<path d="M1 23L2.49218 19.6537C2.52642 19.5769 2.54353 19.5385 2.55736 19.4988C2.57118 19.4592 2.58165 19.4185 2.60258 19.3371L4.31527 12.6743C4.37234 12.4523 4.40088 12.3413 4.43601 12.2632C4.66805 11.7471 5.28168 11.5262 5.78941 11.7759C5.8663 11.8137 5.95905 11.8811 6.14455 12.0158V12.0158C6.32503 12.1468 6.41526 12.2123 6.49088 12.2498C6.98942 12.4966 7.59354 12.2891 7.83524 11.7881C7.87189 11.7121 7.90283 11.6049 7.96471 11.3907L10.3701 3.06046C10.5158 2.55583 11.1279 2.36167 11.5378 2.69001V2.69001C11.7718 2.87741 12.096 2.90426 12.3576 2.75791L14.4322 1.59735C14.952 1.30657 15.2119 1.16118 15.4933 1.17215C15.7747 1.18313 16.0225 1.34832 16.518 1.67869L19.2011 3.46741C19.5937 3.72911 19.7899 3.85995 19.906 4.05573C20.0221 4.2515 20.0427 4.48649 20.084 4.95646L20.4204 8.78508C20.4299 8.89244 20.4346 8.94611 20.445 8.99888C20.4554 9.05164 20.4715 9.10307 20.5036 9.20595L20.9241 10.5531C21.0071 10.8189 21.2533 11 21.5318 11H21.6498C21.8581 11 22.0423 11.1354 22.1043 11.3343V11.3343C22.2042 11.6543 22.5948 11.7736 22.8565 11.564L22.9807 11.4646C23.2762 11.2279 23.7153 11.3301 23.8758 11.673L24.0666 12.0804C24.2859 12.5489 24.8859 12.6886 25.2896 12.3652V12.3652C25.5612 12.1477 25.9424 12.131 26.232 12.3238L29.02 14.1803C29.1889 14.2928 29.2734 14.3491 29.3433 14.4189C29.4182 14.4936 29.4807 14.5798 29.5286 14.6741C29.5733 14.7622 29.6007 14.8599 29.6553 15.0554L30.2382 17.1393C30.246 17.1673 30.2499 17.1813 30.2517 17.1873C30.5403 18.1718 31.9473 18.1351 32.1842 17.137C32.1857 17.1309 32.1889 17.1167 32.1952 17.0883L32.4246 16.0658C32.5851 15.3498 33.5876 15.3024 33.815 16V16L34.0416 17.2098C34.1785 17.941 35.2314 17.925 35.3461 17.19V17.19C35.4626 16.4436 36.5374 16.4436 36.6539 17.19L36.7051 17.5176C36.825 18.2864 37.9139 18.3354 38.1025 17.5804L38.4699 16.1091C38.4704 16.1069 38.4707 16.1058 38.471 16.1047C38.4885 16.0352 38.5135 15.9677 38.5454 15.9035C38.5459 15.9025 38.5465 15.9015 38.5475 15.8994L39.2106 14.5752C39.6227 13.7521 40.8456 13.9287 41.008 14.8348V14.8348C41.2034 15.9256 42.7871 15.8671 42.9015 14.7648L43.333 10.6083C43.3603 10.3461 43.3739 10.2149 43.4049 10.1172C43.5569 9.63927 44.0394 9.34781 44.5331 9.43567C44.6341 9.45364 44.7565 9.5026 45.0013 9.60051L45.2555 9.70221C45.6811 9.87243 46.1668 9.69973 46.3894 9.29908V9.29908C46.8682 8.43726 48.1842 8.84523 48.0915 9.82675L47.6942 14.0354C47.6178 14.8441 47.5796 15.2484 47.7648 15.5383C47.8259 15.634 47.9029 15.7186 47.9924 15.7885C48.2636 16 48.6698 16 49.482 16H49.7639C50.3653 16 50.666 16 50.9077 16.1493C51.1493 16.2987 51.2838 16.5677 51.5528 17.1056L52.3549 18.7097C52.4273 18.8545 52.4635 18.927 52.5106 18.9924C52.5577 19.0577 52.615 19.115 52.7295 19.2295L55 21.5" stroke="#FF35A2" stroke-linecap="round"/>
</svg>
