<svg width="54" height="28" viewBox="0 0 54 28" fill="none" xmlns="http://www.w3.org/2000/svg">
<path d="M1.49375 23.6501L1.22994 24.2417C0.674118 25.4882 0.396207 26.1115 0.684453 26.5647C0.9727 27.018 1.65498 27.0306 3.01954 27.0559L51.963 27.9623C52.9217 27.98 53.4011 27.9889 53.7005 27.6949C54 27.401 54 26.9215 54 25.9626V18.5L53.4362 20.3061C52.7973 22.353 52.4779 23.3765 51.8577 23.469C51.7829 23.4802 51.707 23.4828 51.6315 23.4769C51.0064 23.4276 50.6167 22.4288 49.8373 20.4312L49.2064 18.8143C48.973 18.2159 48.1879 18.0786 47.7652 18.5623C47.279 19.1186 46.3636 18.8384 46.2721 18.1052L46.2128 17.6306L46.2128 17.6304C46.1951 17.4885 46.1862 17.4176 46.1777 17.377C46.0088 16.5732 44.9964 16.3046 44.4512 16.9189C44.4236 16.9499 44.3807 17.0072 44.295 17.1217L44.185 17.2685C44.1633 17.2974 44.1525 17.3119 44.1423 17.3265C44.0613 17.443 44.0061 17.5755 43.9802 17.715C43.977 17.7325 43.9744 17.7503 43.9691 17.7858L43.969 17.7861L42.6892 26.3965C42.6158 26.8907 41.9498 26.9967 41.7265 26.5497L41.6573 26.4111C41.4842 26.0644 40.981 26.0908 40.8451 26.4537C40.686 26.8784 40.0674 26.8189 39.9922 26.3716L38.5017 17.5034C38.4066 16.9375 37.6049 16.9061 37.4659 17.4629C37.326 18.023 36.5182 17.9867 36.4291 17.4163L36.2377 16.19C36.1213 15.4436 35.0464 15.4436 34.9299 16.19L34.7744 17.1862C34.6897 17.7291 33.9122 17.7409 33.811 17.2009C33.7144 16.685 32.9835 16.6632 32.8564 17.1724L31.9353 20.8609C31.8289 21.2871 31.2231 21.2871 31.1167 20.8609C31.0306 20.5161 30.5828 20.4257 30.3697 20.7101L30.0659 21.1157C29.7015 21.6021 28.9292 21.3825 28.8753 20.7772L27.5527 5.94758C27.5166 5.54211 27.0434 5.34024 26.7257 5.59472C26.4679 5.8012 26.0848 5.71199 25.9447 5.41286L25.5983 4.67301C25.4378 4.33013 24.9987 4.22788 24.7032 4.46456L24.579 4.56402C24.3173 4.77361 23.9268 4.6543 23.8269 4.33426C23.7648 4.13541 23.5807 4 23.3724 4H23.193C22.951 4 22.737 3.84266 22.6649 3.61162C22.5056 3.10139 21.7872 3.09127 21.6136 3.59681L20.3843 7.17707L20.3843 7.17709C19.7806 8.9353 19.4788 9.8144 18.9647 9.95219C18.8 9.99634 18.6267 9.99764 18.4614 9.95596C17.9453 9.82587 17.6303 8.95138 17.0004 7.20239L17.0004 7.20238L15.853 4.01657C15.0942 1.90975 14.7148 0.856339 14.0219 0.847224C13.3291 0.838109 12.9221 1.88118 12.1081 3.96731L11.1912 6.31747C11.0591 6.65594 10.6366 6.76912 10.353 6.542C10.0414 6.29242 9.57608 6.45691 9.49055 6.84688L6.70031 19.5679L6.7003 19.5679C6.66007 19.7514 6.63995 19.8431 6.63005 19.8767C6.34542 20.8445 4.96952 20.8299 4.70553 19.8563C4.69635 19.8224 4.67819 19.7303 4.64186 19.546C4.60821 19.3753 4.59139 19.29 4.58236 19.2565C4.32387 18.2997 2.98054 18.2614 2.66799 19.202C2.65708 19.2348 2.63542 19.3191 2.59212 19.4875L2.59211 19.4876L1.60162 23.3408C1.58165 23.4185 1.57166 23.4573 1.55862 23.4952L1.55608 23.5025C1.54275 23.5402 1.52642 23.5769 1.49377 23.6501L1.49375 23.6501Z" fill="url(#paint0_linear_1_1561)"/>
<defs>
<linearGradient id="paint0_linear_1_1561" x1="27" y1="-17" x2="27" y2="28" gradientUnits="userSpaceOnUse">
<stop stop-color="#12D790"/>
<stop offset="1" stop-color="#12D790" stop-opacity="0"/>
</linearGradient>
</defs>
</svg>
