<svg width="56" height="28" viewBox="0 0 56 28" fill="none" xmlns="http://www.w3.org/2000/svg">
<path d="M1 27L2.49375 23.6501C2.52642 23.5769 2.54275 23.5402 2.55608 23.5025C2.55694 23.5001 2.55778 23.4976 2.55862 23.4952C2.57166 23.4573 2.58165 23.4185 2.60162 23.3408L3.59211 19.4876C3.63542 19.3191 3.65707 19.2349 3.66799 19.202C3.98054 18.2614 5.32387 18.2997 5.58236 19.2565C5.59139 19.29 5.60821 19.3753 5.64186 19.546V19.546C5.67819 19.7303 5.69635 19.8224 5.70553 19.8563C5.96952 20.8299 7.34542 20.8445 7.63005 19.8767C7.63995 19.8431 7.66007 19.7513 7.70031 19.5679L10.4905 6.84688C10.5761 6.45691 11.0414 6.29242 11.353 6.542V6.542C11.6366 6.76912 12.0591 6.65594 12.1912 6.31747L13.1081 3.96731C13.9221 1.88118 14.3291 0.838109 15.0219 0.847224C15.7148 0.856339 16.0942 1.90975 16.853 4.01657L18.0004 7.20237C18.6303 8.95137 18.9453 9.82587 19.4614 9.95596C19.6267 9.99764 19.8 9.99634 19.9647 9.95219C20.4788 9.8144 20.7806 8.93529 21.3843 7.17707L22.6136 3.59681C22.7872 3.09127 23.5056 3.10139 23.6649 3.61162V3.61162C23.737 3.84266 23.951 4 24.193 4H24.3724C24.5807 4 24.7648 4.13541 24.8269 4.33426V4.33426C24.9268 4.6543 25.3173 4.77361 25.579 4.56402L25.7032 4.46456C25.9987 4.22788 26.4378 4.33013 26.5983 4.67301L26.9447 5.41286C27.0848 5.71199 27.4679 5.8012 27.7257 5.59472V5.59472C28.0434 5.34024 28.5166 5.54211 28.5527 5.94758L29.8753 20.7772C29.9292 21.3825 30.7015 21.6021 31.0659 21.1157L31.3697 20.7101C31.5828 20.4257 32.0306 20.5161 32.1167 20.8609V20.8609C32.2231 21.2871 32.8289 21.2871 32.9353 20.8609L33.8564 17.1724C33.9835 16.6632 34.7144 16.685 34.811 17.2009V17.2009C34.9122 17.7409 35.6897 17.7291 35.7744 17.1862L35.9299 16.19C36.0464 15.4436 37.1213 15.4436 37.2377 16.19L37.4291 17.4163C37.5182 17.9867 38.326 18.023 38.4659 17.4629V17.4629C38.6049 16.9061 39.4066 16.9375 39.5017 17.5034L40.9922 26.3716C41.0674 26.8189 41.686 26.8784 41.8451 26.4537V26.4537C41.981 26.0908 42.4842 26.0644 42.6573 26.4111L42.7265 26.5497C42.9498 26.9967 43.6158 26.8907 43.6892 26.3965L44.969 17.7861C44.9743 17.7504 44.977 17.7325 44.9802 17.715C45.0061 17.5755 45.0613 17.443 45.1423 17.3265C45.1525 17.3119 45.1633 17.2974 45.185 17.2685L45.295 17.1217C45.3807 17.0072 45.4236 16.9499 45.4512 16.9189C45.9964 16.3046 47.0088 16.5732 47.1777 17.377C47.1862 17.4176 47.1951 17.4886 47.2128 17.6306L47.2721 18.1052C47.3636 18.8384 48.279 19.1186 48.7652 18.5623V18.5623C49.1879 18.0786 49.973 18.2159 50.2064 18.8143L50.8373 20.4312C51.6167 22.4288 52.0064 23.4276 52.6315 23.4769C52.707 23.4828 52.7829 23.4802 52.8577 23.469C53.4779 23.3765 53.7973 22.353 54.4362 20.3061L55 18.5" stroke="#12D790"/>
</svg>
