<svg width="55" height="22" viewBox="0 0 55 22" fill="none" xmlns="http://www.w3.org/2000/svg">
<path d="M2.92035 15.9138L0 13.3599V21.5H55V18.9785L54.0265 15.9138H52.5664C52.7286 13.7004 52.9558 9.47805 52.5664 10.2953C52.0796 11.3169 50.6195 15.9138 49.646 15.9138C48.8673 15.9138 48.3481 14.8923 48.1858 14.3815L45.7522 10.2953L44.292 11.8276L42.8319 13.3599L41.3717 20L40.3982 18.9785L38.4513 15.9138L36.9911 14.3815V8.2522C36.9911 7.43497 36.6667 3.48497 35.0442 1.61212L32.1239 5.18754L29.6903 13.3599L28.2301 10.2953L26.2832 6.71986V1.61212L23.3628 0.079794C22.5841 -0.328826 22.3894 0.931085 22.3894 1.61212L20.9292 5.18754L19.469 6.71986V1.61212L17.5221 5.18754L16.5487 11.8276L14.115 18.9785V11.8276L12.6549 6.71986L9.73451 9.27374L6.32743 5.18754V9.27374L4.86726 14.3815V18.9785L2.92035 20V15.9138Z" fill="url(#paint0_linear_1_1577)"/>
<defs>
<linearGradient id="paint0_linear_1_1577" x1="27" y1="-14" x2="28" y2="19.5" gradientUnits="userSpaceOnUse">
<stop stop-color="#FF35A2"/>
<stop offset="1" stop-color="#FF35A2" stop-opacity="0"/>
</linearGradient>
</defs>
</svg>
